<?xml version="1.0" encoding="utf-8"?>
<!-- Generator: Adobe Illustrator 21.0.0, SVG Export Plug-In . SVG Version: 6.00 Build 0)  -->
<svg version="1.1" id="Layer_1" xmlns="http://www.w3.org/2000/svg" xmlns:xlink="http://www.w3.org/1999/xlink" x="0px" y="0px"
	 viewBox="0 0 735 580" style="enable-background:new 0 0 735 580;" xml:space="preserve">
<path d="M314,200.1c0,0-133.6-227.5-293.9-188.2c0,0,3.4-1.7,17.4,19c0,0,84.1,14.8,80.3,103c0,0,6,56-80.8,89.4
	C37,223.3,110.2,195,314,200.1z"/>
<path d="M43.5,48.9c0,0,107.2,54.3,28.3,135c0,0-36.9,27.8-59.7-5.1c0,0-15.4-34.6,16-46.8c0,0,38.9-11.3,35.9,34.2
	C64,166.3,109.3,122.2,43.5,48.9z"/>
<path d="M182.1,231.1c0,0,1,8,3.9,11c0,0,62.6-23.4,107.2-27.8C293.2,214.3,210.6,214.4,182.1,231.1z"/>
<path d="M191.3,255.5c0,0,4.7,12.7,7,14.1c2.3,1.4,34.6-26.2,94.9-49.6C293.3,220,232.3,235.2,191.3,255.5z"/>
<path d="M209.3,281.1c0,0,5.3,8.5,11.6,11.8c0,0,60.4-58.2,75.9-67.8C296.7,225.1,274.7,234.8,209.3,281.1z"/>
<path d="M226.9,296.5c0,0,6.9,7.3,10.7,8.7c0,0,40.2-53.3,55.9-68.1C293.5,237.1,256.4,267.3,226.9,296.5z"/>
<path d="M352.7,156.5c0,0,5.4,16.4-7.7,34.9c0,0-3.7,0.1-4.1-6.2C340.9,185.1,330.8,158.2,352.7,156.5z"/>
<path d="M377.2,158.4c0,0-6.8,20.3,0.5,30.7c0,0,2.6,5.1,4.8-0.1c0,0,15.5-26.4,0.7-30.7C383.2,158.3,380.3,155.2,377.2,158.4z"/>
<path d="M357.1,151.3c0,0-10.3-6.4-0.1-6c0,0,2.5-2.3,22.5,1.1c0,0,4.8-0.9,0.1,4.6c0,0-9.4,1.9-10.9,12.4
	c-1.5,10.6-2.2,24.8,3,30.1c0,0,17.1,18.5,21,30.2c0,0,15,32.8,16.5,52.2c0,0,1.5,3.1,0.2,14.2c0,0-2.2,5.2-3.1,0
	c-0.9-5.1-7.9-51.4-34.3-66.1l-3.5-2.8c0,0,2.4-11.4-9.3-11.8c0,0-10.5-0.4-9.2,12.1c0,0-23,3.5-44.6,61.9c0,0-2.5,7.4-2.9-0.8
	s17.9-60.1,32-68.9c0,0,10.9-13.2,17.9-19.9c7-6.7,9.4-20.4,9.6-27.5C362.1,159.2,360.6,151.2,357.1,151.3z"/>
<path d="M355.2,136.2c0,0-22.4-70.9-62.6-92.8C292.6,43.5,332.9,76.5,355.2,136.2z"/>
<path d="M381.4,137.2c0,0,8.8-41.1,82.4-87.8C463.8,49.4,395.2,100.3,381.4,137.2z"/>
<path d="M353.2,230.2c0,0-4.8,21.4-2.1,30.8c0,0-31.9,20.7-43.6,57.9c0,0-2.5-31,17.6-58.4C325.2,260.5,336.3,237.9,353.2,230.2z"/>
<path d="M362,230.1c0,0,0.6,23.6-1,30.2c0,0,30.4,15.8,39.7,62.9C400.8,323.2,409.7,270.9,362,230.1z"/>
<path d="M336.9,283.4c0,0,6.8-8.6,19.1-9.3c12.3-0.6,19.4,14.1,19.4,14.1S357.9,296.5,336.9,283.4z"/>
<path d="M332.2,291.3c0,0,23.4,9.1,45.4,5.5c0,0,5.5,2.8,7.9,12.7c0,0-22.3,10.3-60.4-2.8C325,306.7,325,297.7,332.2,291.3z"/>
<path d="M326,313.9c0,0,18.4,11.6,59.6,5c0,0,2.3,4.8-3.6,15.1c0,0-24,5.2-54.3-2.9C327.7,331.1,322.9,319.8,326,313.9z"/>
<path d="M332.6,337.9c0,0,24.9,8.7,43.6,2.5c0,0-4.7,8.3-21.6,12C354.6,352.4,336.2,350.7,332.6,337.9z"/>
<path d="M323.4,213.9c0,0-31.3,20.4-28.8,93.3c0,0,0.2-3,8.1-9.2c0,0-7.6,24,0.6,40.4l9-9.8c0,0,3.2,16.5,13.2,22
	c0,0-61.4,33.4-76.2,109.4c0,0,2,18.8,16.7,8.9l8.4-8.7c0,0,5.6-4.6,4,2.8c0,0-29.6,39.8-25.4,51.6c0,0-2.6,18.3,23,16.2
	c0,0,22.5,7.6-2.7,26.8c-25.1,19.2-53.2,10.5-56.2,0.9c0,0-33.9-21.7,1.4-135.6C218.6,422.8,263.4,258,323.4,213.9z"/>
<path d="M350.1,428.8c0,0,4,3.4,8.3-0.1l-3.3,57.6L350.1,428.8z"/>
<path d="M346.5,366.7l4.1,47.6c0,0,4.9,2.3,6.7-0.1l2.1-47.7C359.4,366.5,354.9,368.9,346.5,366.7z"/>
<path d="M667.5,164.7c0,0-45.9-43.4,26.1-120.5c0,0-85.7,41.4-47.6,122.8c0,0,25.1,41.8,62.6,17c0,0,47.3-46.9-7.2-67.1
	C701.4,116.9,657.9,117.1,667.5,164.7z"/>
<path d="M415.9,211.9c0,0,37.5-9.1,118.8,21.5c0,0,2.4,7.4-3.2,13.1C531.5,246.6,511.3,228.7,415.9,211.9z"/>
<path d="M420,218.1c0,0,67.5,17.8,106.6,43.4c0,0-1.6,6.6-7.8,13.1C518.8,274.6,492.4,248.8,420,218.1z"/>
<path d="M420.1,225.5c0,0,32.1,10.3,89.7,54.7c0,0,1.2,6-6.7,10.7C503.1,290.9,468.4,257.5,420.1,225.5z"/>
<path d="M430,238.5c0,0,43.3,40.9,54.3,67.5c0,0-4.7,5.4-12.7,5.7C471.5,311.7,464.2,283.1,430,238.5z"/>
<path d="M397.1,212.7c0,0,22.5,20.9,20.3,99.8c0,0,5.5,0.3-7.3-13.9c0,0,4,29-8.2,45.7c0,0-1.9-11.4-6.5-15.3c0,0-1.2,14.8-9,19.5
	c0,0,91.1,63,78.3,120.7c0,0,3.7,17-17.7-2.6c0,0,39.9,76.9-3.5,70.7c0,0-16.5-8.9-15.2,9.9c0,0,14.8,40.2,59.8,20.2
	c45-20-8.1-175.3-8.1-175.3S419.9,217.5,397.1,212.7z"/>
<path d="M421.4,198.2c0,0,135.6-226.3,295.6-185.5c0,0-3.4-1.7-17.6,18.8c0,0-84.3,14-81.3,102.3c0,0-6.5,56,80,90.1
	C698.2,223.9,625.3,194.8,421.4,198.2z"/>
</svg>
