<?xml version="1.0" encoding="utf-8"?>
<!-- Generator: Adobe Illustrator 21.0.0, SVG Export Plug-In . SVG Version: 6.00 Build 0)  -->
<svg version="1.1" id="Layer_1" xmlns="http://www.w3.org/2000/svg" xmlns:xlink="http://www.w3.org/1999/xlink" x="0px" y="0px"
	 viewBox="0 0 598 584" style="enable-background:new 0 0 598 584;" xml:space="preserve">
<path d="M534.5,352.1c-56.7-69.2-18.9-150.7-18.9-150.7c21-116.2-0.4-123.3-37.8-148.5s-80.3,4.4-89.1,4.4
	c-1.4-1.1-12.6,3.4-5.5-11.1S416.7-2.7,379,39c-7.8,8.9-9.2,21.7-9.2,21.7s-1.3,25.3-23.9,5.8c-30.1-27.8-63.9-36.7-63.4-41.7
	s30.8-24.2,22.7-22.6c-7.9,1.6-35,26.6-35,26.6c-16.1,2.2-39.8,16.8-52.8,36.8s-10.2-7.9-11.8-31.5c-0.7-10.9-4.2-10.6-4.6-6.2
	s-2.9,54.1-5.5,57.2c-2.5,3.1-23.5,22.6-23.5,22.6s0.8-48.8-3.4-20s-5.5,27.5-20.2,47.9s-10.1,3.1-12.2,2.2
	c-2.1-0.9-6.3-29.4-6.3-29.4s4.3-27.6,13.9-44c2-3.5,15.3-22.6-2.9-0.2c-7.5,9.2-13.6,31.5-13.6,31.5c-12-39.3-0.3-50.2-4.5-65.6
	c-6.7-24.1-0.5,3.7-5.9,0c-4.9-3.4,0.4,12-0.4,23.1s-9.9,9.9-25.2,1.3c-56.7-31.6-3.4,4-3.4,4s-46.3-19.3,12.6,8.9
	c16.4,7.9,17.8,7.6,20.2,27.2c2.3,19.1,10.2,49.5,0.4,34.9c-17.4-26-23.6-35.9-28.6-45.2c-16.9-31.6-6.7-2.5-6.7-2.5L89.6,95
	c0,0-13-2.7-21.2-2.7S58,83.4,58,83.4S53,71,46.3,57.7c-10.4-16.1-5,0-5,0s8,21.3,11.3,26.6c3.4,5.3-2.9,4.9-2.9,4.9
	c-13.2-2.9-16.6,3-29.9-9.4c-22.4-28-20.1-11.4-5.8,1.9s66.4,23.9,69.7,23.1c3.4-0.9,5.9,2.7,5.9,2.7c5.9,0.9,38.7,64.3,38.7,64.3
	s-9.7,0.9-10.1,2.7s-13.9,4.4-13.9,4.4c-18.1,3.5-15.5,8.4-18.5,8.4c-2.9,0-6.7,4-6.7,4c-7.1,0-18.5,5.8-21,4.4
	c-2.5-1.3-5.9,0-8.8,1.8c-2.9,1.8-5.5,8-7.6,12.9s3.8,11.5,3.8,11.5c-2.9,8.4,4.2,10.2,4.2,10.2c8.8,4.4,16-3.1,16.4-0.9
	c0.4,2.2,9.2,2.7,9.2,2.7c8.8-4,22.7,3.5,36.6,8.4s13.9,51.4,13.9,51.4c2.5-7.5,3.8-22.2,3.8-22.2c4.2,9.8,5.5,37.2,5.5,37.2
	c2.9-15.1,2.1-22.6,2.1-22.6c3.4,8.4,5.5,32.4,5.5,32.4c2.9-12.9,1.3-24.4,1.3-24.4c2.7,8.2,5.1,26.1,6,32.8
	c-0.4-7.6,1.2-23.9,1.2-23.9c3.4,33.4,5.5,41.6,5.5,41.6c-0.8-12.9,2.1-34.6,2.1-34.6c3.4,30.6,8.4,39.9,8.4,39.9
	c-1.7-8,0.4-36.8,0.4-36.8c0,7.5,8,40.8,8,40.8c1.7-4.9,0.8-24.4,0.8-24.4c3.8,6.2,5.5,32.2,5.5,32.2l2.1-18.5
	c8,52.3,18.9,108.6,18.9,108.6c-9.7-0.4-25.6,3.5-25.6,3.5s-108,16.4-124.8,78s52.1,39.8,52.1,39.8C226,530,247.9,533.7,247.9,533.7
	c127.3-12.4,139.5,27,201.3,37.7c61.8,10.6,141.2-30.1,142.9-94S591.2,421.2,534.5,352.1z M49.8,210.4h-2.1c0,0-0.4-5.5,4.2-8.9
	C56.6,198.2,49.2,206,49.8,210.4z M110.3,191.3c-2.7,1.8-9.5,0.7-9.5,0.7s-6.9,6-2.7,0c4.2-6,16.8-8.2,16.8-8.2
	C115.4,188.2,113.1,189.6,110.3,191.3z M209.4,500.6c-1.8-2.9,0-6.9,0-6.9c-3.7-0.2-9.6,8-9.6,8c-0.2-11.7,8.8-20,8.8-20
	c2.9-1.1-3.8-29.7-3.8-29.7c5.3-1.3,11.8,0,11.8,0c-1.3,23.5,1.3,34.6,1.3,34.6C214.3,499.2,209.4,500.6,209.4,500.6z M210.8,379.3
	c-0.2-0.7-0.3-1.1-0.3-1.1C210.6,378.5,210.7,378.8,210.8,379.3c1.4,5.4,7.4,31,9.6,71.2h-3.6l0.9-2
	C217.8,448.5,213.1,389.7,210.8,379.3z M230.1,486.6c0,11.3-3.6,15.1-3.6,15.1c-2.7-2.2-1.3-13.1-1.3-13.1
	c-2.7,3.5-7.4,13.1-7.4,13.1c-0.8-5.1,3.4-16.6,3.4-16.6c1.9-16.8,0-31.9,0-31.9l-0.4-1.7l13.9-1
	C235.5,454.5,230.1,486.6,230.1,486.6z M235.5,448.7c0,0,1.5-13.7,1.1-24.4c0,0,12.6-33,13.9-49.2c0,0,22.5,8.2,76-6
	c0,0,10.1,29.9,38.4,70.5c0,0-10.5,19.1-11.3,24.2C353.6,463.8,317.5,445.8,235.5,448.7z M351.9,499.2c0,0-1.9-5.3,0-13.1
	c0,0-4.6,1.8-9.9,10.9c0,0-4.8-4.7,12.2-31.9c0,0,11.6,2.7,14.1,4.7C368.3,469.8,355.3,497.5,351.9,499.2z M370.6,468.9
	c0,0,5-19.3,16.8-31.3c0,0-13.2-43.4-9.7-56.5c0,0,41,21.7,65.8,95.5C443.5,476.6,402.6,483.1,370.6,468.9z M452.6,495.7
	C443.4,499.9,435,509,435,509c-0.8-2.9,7.1-12,9.2-14.2s1.1-18.3,1.1-18.3l14.1-1.9c0.8,12.2,7.6,32.6,7.6,32.6
	C453.8,491.9,452.6,495.7,452.6,495.7z M460.5,473.1c0,0-17.2-33.7-10.1-77.6c0,0,3.8,2.7-2.1-4.4s-37-32.6-34.5-88.1
	c0,0-1.3-17.4,11.8-24s-6.7-9.8-6.7-9.8s-26.1-4.9-62.2,0s-126.5-1.3-161.8-45.2c0,0-12.2-19.1-27.7-27c0,0,23.1-20.4,24.8-25.3
	c0,0,2.1-2.2,3.4-4.4c1.3-2.2,2.1-1.9,2.1-1.9s1.6-0.6-1.4-1.3c0,0-13-6.1-49.9,11.6c0,0-5-10.8,7.6-21.3c0,0,21.4-28.8,42-38.6
	c0,0,12.6-2.7,48.3,26.2c0,0,3.8-1.3,17.6,41.2c0,0,3.2,6.4,5.5,10.2c20.9,35.4,46.1,53.2,2.8-3.1c-7.5-9.8-8.7-25.3-4.5-29.3
	c0,0-0.8-4.4,9.7,6.2l73.1,55.9c0,0,4.6,2.2,6.3,6.2c1.7,4,15.5,25.7,15.5,25.7s14.2,19,2.9-3.1c-7.6-14.9,6-6.9,6-6.9l-16.5-21.5
	c0,0-0.9-9.3,12.3-4c0,0,20.4,1.8,25,2.7s22.3,8,49.6,5.3c0,0,6.3-1.8-11.3-6.7c-17.6-4.9-37.4-8.4-45-8.9c0,0-28.2-5.8-22.7-15.5
	c0,0,18.5-9.8,47.9-8.7c0,0,30.7-1.1,46.6-15.7c0,0,8.4-6.2-8-4.9s-28.2,0.4-60.1,10.2c0,0-41.6,8.9-46.6,6.2s-13,0-2.9-8.4
	c0,0,24.8-11.5,31.1-15.1s7.1-6.2,7.1-6.2s6.3-12.9-7.1-7.5c-13.4,5.3-24.4,10.2-45.8,20.4c0,0-8,5.3-20.2-1.3s-65.1-44.3-65.1-44.3
	s-4.2-4.1,2.1-5.4s31.9-9.2,32.8-9.2s4.6-5.3-4.2-3.5c-8.8,1.8-42.9,5.8-47.1,1.8c-4.2-4-3.8-6.7-0.4-10.2
	c3.4-3.5,37-25.7,44.5-26.6c7.6-0.9,21-10.2,40.3,12s41.6,19.5,41.6,19.5s29-1.8,49.2-13.3c0,0,10.5-8,27.7,6.7c0,0,6.3,4,15.1,1.3
	c8.8-2.7-4.2-5.3-4.2-5.3s-9.2-3.5-9.2-7.5s6.3-5.3,6.3-5.3s7.6-4.4,17.6,0.9s37.4,17.7,33.6,45.7s2.9,23.1-27.3,97.1
	c0,0-21.4,25.7-9.7,76.7c11.8,51,10.9,22.6,43.3,91.3C499.6,387.5,527.3,441.6,460.5,473.1z"/>
</svg>
