<svg id="Layer_1" data-name="Layer 1" xmlns="http://www.w3.org/2000/svg" viewBox="0 0 1800.21 879.16"><defs><style>.cls-1{fill:#020006;}</style></defs><title>dragon_final_svg</title><path class="cls-1" d="M212.31,374.36s112.5-123.9,162.3-135.3c0,0-139.6,155.2-148.1,206.5,0,0,1.4,15.7-59.8,39.9Z"/><path class="cls-1" d="M186.61,385.76s-7.1,44.1-65.5,133.9c0,0,79.7-12.8,115.4-42.7s58.4-277.7,542.6-374.5c0,0-253.5,71.2-411.6,294.8,0,0,131.5-151,399.7-170.9,0,0-151.9,12.8-331.4,169.5,0,0,220.7-159.5,411.6-101.1,0,0-272.1-27.5-472.8,235.5,0,0-96.8-4.8-196.5,65,0,0-54.1,22.8-96.8-11.4l71.2-37L30,566.76s-6.1,5.2-19.9-14.2l-7.1-10s-10.8-13.8,8.5-29.9c7.3-6.1,7.3-6.1,11.6-20.4s-11.9-28,16.9-46.6c23-14.9,47-5.7,47-5.7l41.3-10.7Z"/><path class="cls-1" d="M213.21,602.56s-11,6.6-33,11.6c0,0,47,54,117,56,0,0,26,1,30-14,0,0,6-10,21,2s61,43,150-4c0,0-119,25-148-19,0,0-10-15-38-15S274.21,648,213.21,602.56Z"/><path class="cls-1" d="M416.21,533.16s92-96,121-119l38,7s-99,104-108,117Z"/><path class="cls-1" d="M489.21,538.16s97-109,105-112c0,0,34,4,56,16,0,0-99,84-112,103C538.21,545.16,498.21,536.16,489.21,538.16Z"/><path class="cls-1" d="M563.21,554.16s97-93,106-96c0,0,33,5,51,18,0,0-122,81-127,99C593.21,575.16,579.21,559.16,563.21,554.16Z"/><path class="cls-1" d="M619.21,594.16s108-100,123-100c0,0,19-3,52,27,0,0-115,66-144,102C650.21,623.16,636.21,602.16,619.21,594.16Z"/><path class="cls-1" d="M600.21,634.16a150.26,150.26,0,0,0,36,19s-30,24-17,96C619.21,749.16,581.21,674.16,600.21,634.16Z"/><path class="cls-1" d="M667.21,702.16s8,21,23,38c0,0-17,23,0,90C690.21,830.16,650.21,775.16,667.21,702.16Z"/><path class="cls-1" d="M724.21,749.16s20,19,38,31c0,0-2,63,32,99C794.21,879.16,736.21,855.16,724.21,749.16Z"/><path class="cls-1" d="M103.21-204.84"/><path class="cls-1" d="M921.21,538.16c-47,23-102,0-102,0-12,10-142.6,108-142.6,108,145.4,227,321.6,140,321.6,140C988.21,775.16,921.21,538.16,921.21,538.16Zm-140,193s-63-51-74.5-74c0,0,25.5-10.4,29.5-16.2,0,0,44,57.2,66,68.2Zm99,53s-38.8,2-76-35l22.3-25.4s21.7,24.4,56.7,28.4Zm30-35c36.2-5.4,49-13,49-13l15,37c-23,10-57,11-57,11C914.51,759.36,910.21,749.16,910.21,749.16Z"/><path class="cls-1" d="M1257.21,332.56l-247,117s-6,44-52,92l83,243S1398.21,653.16,1257.21,332.56Zm-179,408.6-12-33c70-37,93-74,93-74l29,15C1143.21,730.16,1078.21,741.16,1078.21,741.16Zm132-118-28-14c31-45,37-89,37-89l37,6C1249.21,582.16,1210.21,623.16,1210.21,623.16Zm14-125c10-80-19-114-19-114l35-21.9c37,66.1,16,135.9,16,135.9Z"/><path class="cls-1" d="M979.11,152.66s-63,136.5,30,261.5l222-109c0-5-13-35,23-57l14-248S1083.11-8.84,979.11,152.66Zm229.1,132.5-26,20c-44-100,46-118,46-118l8,51.9C1204.21,246,1208.21,285.16,1208.21,285.16Z"/><path class="cls-1" d="M1310.21,3.56l-20,238s35-19,69-16l32-222S1354.21-4.44,1310.21,3.56Zm31.3,203.5c-5-4-30.3,6-30.3,6l5-50h31Z"/><path class="cls-1" d="M1425,16.46l-24.3,208.7c25.6-3.3,41,0,41,0l34-201A107.41,107.41,0,0,0,1425,16.46Zm6.2,190.6c-11-4-19.5,0-19.5,0l7.5-41c8-5,19,0,19,0Z"/><path class="cls-1" d="M1505.21,33.16l-29.5,193s25.5,0,34.5,9l131-131.8S1592.21,31.16,1505.21,33.16Zm8,184c-4-8-20-10-20-10l7.3-34.3a50.51,50.51,0,0,1,37.7,15.3Z"/><path class="cls-1" d="M1662.21,134.16l-130,118a68.45,68.45,0,0,1,24.3,38h99.8C1656.21,290.16,1701.21,223.06,1662.21,134.16Zm-51,141h-37c-3-21-15.8-26-15.8-26l38.8-24C1620.21,254.26,1611.21,275.16,1611.21,275.16Z"/><path class="cls-1" d="M1564.21,320.66c-1.8,20.9-13,55-13,55l79,16c10-43,20-56.5,20-56.5Zm33,49.5-30-7.9,6-20.1,32,6A45.75,45.75,0,0,1,1597.21,370.16Z"/><path class="cls-1" d="M1674.21,464.26c-39,7.1-50-38.1-50-38.1l-65.8-12s-31.3,61,17.8,102.5,110-7.5,110-7.5Zm-98-21.1h29s-6,18,5,33l-17,9.3S1577.21,472.16,1576.21,443.16Zm80,65s-40.1,18.8-51-14.1l14-8.4s21,12.3,37,8.4Z"/><path class="cls-1" d="M1699.21,458.16l20,35.9s71-48.3,81-141.6C1800.21,352.46,1752.21,431.16,1699.21,458.16Z"/></svg>