<?xml version="1.0" encoding="utf-8"?>
<!-- Generator: Adobe Illustrator 21.0.0, SVG Export Plug-In . SVG Version: 6.00 Build 0)  -->
<svg version="1.1" id="Layer_1" xmlns="http://www.w3.org/2000/svg" xmlns:xlink="http://www.w3.org/1999/xlink" x="0px" y="0px"
	 viewBox="0 0 350 536" style="enable-background:new 0 0 350 536;" xml:space="preserve">
<g id="Layer_2">

	<g>
		<path class="st2" d="M256.7,303.8c4.4,47.6,25.8,93.1,25.8,93.1s8,11.7-6.1,11.1s-15.9-8.5-66.7,4.3c0,0-24.1,0.4-7.4,6.8
			c0,0,2.8,1.5,7.9-1.8c5.1-3.3,60.1-15.9,65.9-2.2c0,0,11.2,3.3-19.6,11.2c0,0-98.3,14.3-133.4,41.1c0,0-15.7,3.6-15.3,10
			c0,0,7.6,5.3,12-0.2c4.5-5.5,30.4-17.1,30.4-17.1s44-20.1,122.4-32.4c0,0,13.5-1.6,0.4,7.8c-13.1,9.4-49.3,27.7-95.5,82.3
			c0,0-12.5,10.1-9.2,16.6s10.2-6.6,10.2-6.6l2.4-6.3c0,0,12.6-29.2,104.8-85.5c0,0,12.2-4.4,8.9,8.2c-3.4,12.6-5,16.8-5,16.8
			s-0.9,4.9,5.7,0.2c0,0,2.2-2,0.9-4.9s3.7-21.1,9.5-23.7s5.4,7.3,5.4,7.3s4.3-1.2,4.5-6.9s-5.8-13.7-3.5-17.1s1.4-16.2,8.6-18.7
			c7.2-2.5-3.1-9.3-3.1-9.3s-13.3-36.7-13.2-39.5c0.1-2.7-15.1-42.3-24.9-49.8c-0.3-0.2-0.5-0.4-0.8-0.5c0,0-2.3-1.9,0.7-0.9
			c5.1,1.7,17,17,22,33s18,57,18,57c6,4,5,9,5,9l1.3,0.6c0,0,2.7-61.2-44.3-122.6C281.4,274,252.3,256.2,256.7,303.8z"/>
		<path class="st2" d="M329.4,172c36-47,18-102,2-120s-49-59-96-50s-52,27-55,46c0,0-1,13-6,23c-3.8,7.6-12,17,0,23s20-2,20-2
			s8-9-1-17s-7-25-7-25s7-30,27-36s33-8,46-3s32,7,53,30s37,51,26,82s-45,84-45,84s1-23-13-30c0,0-3.1-9-8-8c-5,1-5,4-5,4
			s23,11,18,45s-40,33-40,33s10,8,20,1c0,0-4,6-10,5s-12-3-15-8s-18-21-21-37s-6-24-6-24s-5-9-14-3c0,0,0,11-1,13c0,0,10,22-5,33
			c0,0,10-14,4-31c0,0-4,6-8,5c0,0,11-4,8-23c0,0,6-9-2-17c0,0-4,7-8,7c0,0,16-10,4-28c0,0-8-10-21-2l-2,2c0,0-1,5,0,9c0,0-9,2-12,7
			c0,0,9-3,12-1c0,0-1,15,0,18c0,0,9-5,15,3c0,0-13,2-14,8c0,0-4,11,7,28c0,0-8-8-8-11c0,0-1,13-6,20c0,0-1,2-1,4c0,0-7,2-10,10
			c0,0,6-5,9-4c0,0,0,4,2,6c0,0-3,3-4,9c0,0,3-3,7-3c0,0,2,10,5,10c0,0,5-11,14-7c0,0-12,9-9,13s15,26,15,42s-14,44-14,44
			s19-40,10-59s-18-31-18-31s-5-6-5-9c0,0-6,3-7,6c0,0-2-11,3-15l-2-3c0,0-8,3-9,6c0,0,1-12,11-17c0,0,8-19,7-26s-4-33-2-39
			c0,0-10,0-12,2c0,0,3-13,13-13c0,0,0-7,1-9c0,0,5-6,11-6c0,0-4-3-9-1v-4c0,0,6-5,12-5c0,0-3-4-14,1c0,0-2-2-5-1c0,0-2-4,2-6
			s-7-3-7,5c0,0-73-2-123,62s-29,131-29,131s19,71,124,80l51,3c0,0,13-16,17-18c0,0,7-16,8-25c0,0,0,20-6,26s-9,7-17,18
			c0,0-16,2-21,9c0,0-9,3-5,5s7-2,7-2s10-7,16-5c0,0-9,5-11,8c0,0-10,1-4,4s5-2,5-2s9-6,12-7s-3,8-3,8s-7,2-4,4s6,1,6,1s2-1,1-3
			s7-13,14-11s-1-5,1-7s17-19,21-20s-5-16,4-26c0,0-5,9-1,25c0,0,1,2-12,12l-5,5c0,0,73,6,80,1c0,0-28-48-29-113
			c-0.5-32.4,29-18,32-14c1.3,1.8,8,14,8,14s-9-34-2-45S293.4,219,329.4,172z M112,151.5c0,0-2.9-5.6,2-7.4c4.8-1.7,5.5,3.2,5.5,3.2
			C113.8,143.2,112,151.5,112,151.5z M132.4,147c0,0-2-6,3-7s5,4,5,4C135.4,139,132.4,147,132.4,147z M163.4,355c19-73-3-83-3-83
			c7,1,10,7,15,20s-4,48-7,62s12,10,12,10C158.4,374,163.4,355,163.4,355z M184.4,349c20-19,10-61,10-61
			C211.4,331,184.4,349,184.4,349z M198.4,337c5-4,4-15,4-15C207.4,334,198.4,337,198.4,337z M210.4,237c-2-21-3-34-5-38
			c0,0,5,8,6,26s10,33,20,38C231.4,263,212.4,258,210.4,237z M237,279.6c11-4.1,0.9-9,0.9-9c3-1,8-0.1,6,6S237,279.6,237,279.6z
			 M246.8,293.2c-2.5,5.3-5.9,1.6-5.9,1.6s3-0.3,3.7-3.4s-2.4-3.8-2.4-3.8S249.3,287.9,246.8,293.2z M240.4,261c-3-5-7-8-6-8
			c0,0,5,1,12,8c0,0,4,4,7,4C253.4,265,243.4,266,240.4,261z"/>
		<path class="st2" d="M337.4,349c-2,6-13,13-13,13s3.8,13,3,22c-0.1,1,3-2,10-17S339.4,343,337.4,349z"/>
		<path class="st2" d="M265.4,207c5-12,10-24-9-36c0,0-22-16-31,16S260.4,219,265.4,207z"/>
	</g>
</g>
</svg>
