<svg version="1.1" id="Layer_1" xmlns="http://www.w3.org/2000/svg" xmlns:xlink="http://www.w3.org/1999/xlink" x="0px" y="0px"
	 viewBox="0 0 711 391" style="enable-background:new 0 0 711 391;" xml:space="preserve">
<path d="M191.9,149c0,0-17.6,22.3-15,38.9c0,0,0.9-20.3,13.8-34.1L191.9,149z"/>
<path d="M256.8,143.1c0,0-10.7-45.1,77.6-104.2c0,0,5.8-3-0.1,5.7c0,0-5.8,8.3-5.3,11.4l-2.5,2.9c0,0-2.3-4.7-0.3-8.4
	c2.1-3.8,7.6-10.3-2.9,0S256,99.4,256.8,143.1z"/>
<path d="M358.1,287.2c-0.6,0.9-1,1.4-1,1.4C357.5,288.2,357.8,287.7,358.1,287.2z"/>
<path d="M384,134.5c0,0,13.7-38.4,48.8-53.5s77.8-32.1,117.9-24.2c0,0-24.3,23.1-38.7,37.5c0,0,26.1-29.8,25-32.5
	C536,59.3,419,56.3,384,134.5z"/>
<path d="M153.8,320.1c0,0,0.9,19.7,2.8,21.5c0,0-19.4,20.8-24.4,29.4c0,0-0.6,6,10.1,0.2c0,0-0.3,3.6,4.9,0.9c0,0,2.1,1.2,2.7,0
	c0.7-1.1,5.8-12.4,5.8-12.4s9.7-10.5,6.7-20.3C162.3,339.4,158.2,336.1,153.8,320.1z"/>
<path d="M658,213.2c0,0,38.8-0.9,53.1-6.2c0,0-18.7-4.6-61.2,2.5c0,0-15.8-6.9-18.2-7c0.9,0,2.4,0,2.4,0s61-14.3,63.1-15.4
	c0,0,2.2-1.3-10.8-0.2c-13.1,1.1-73,6.2-76.1,6.7c0,0-47.1-17-48.9-16.8c-1.8,0.1,25.9-3.7,37.4-9.8c11.5-6.1,29.6-14.4,29.6-14.4
	s10.6-2.2-3.6-3.6c-14.3-1.4-43.6-3.5-58.8,2.9c0,0-0.7-4.7-24.4,18.4c0,0-59.7-18.6-83.4-17.8c0,0,38.5-9.5,49.2-15.6
	c10.7-6.1,54-35.1,54.9-37.5c0.9-2.3,7.4-5-5.2-5.2c-12.6-0.2-82.8-1.8-106.7,13.1c0,0-16.1,9.1-42.6,34.5c0,0-42.1-5.4-50.6-3.6
	c0,0,21.4-29,22.7-34.9c1.3-5.9-4.6-15.3,7.3-46.1c11.9-30.7,12-32.7,24.5-48.1C424.2-6,401.6,5,402.3,7c0,0-100.6,41.4-118,130.8
	c0,0-27.8,3.1-43.5,17.7c0,0,3.4-7.4,6-16.3c2.6-9-2.8-6.3-8.1-29.9c-5.3-23.6,11-48.4,12.3-54.2c1.3-5.9-4-4.4-7.8,0.3
	c0,0-50,38.7-53.5,126.8c0,0-25.5,14.1-28.9,18.7c0,0-1.7,1.1,3.9-14.8c0,0,0.8-1.9-3.5-7.9c-4.4-5.9,4.9-52.4,10.9-66.4
	c5.9-14-1.1-5.9-4.4-2.4c-3.3,3.5-45,58-44.6,83.4c0,0-5.5,11.7,8,31.8c0,0-18.7,11.3-29.8,2.6l-2.3-1.6c0,0-1.3,4.5-2.3,5
	c0,0,1.2-2.1,1.7-4.8c0.1-0.4,0.1-0.8,0.2-1.3c0.3-5-2.8-11.1-19.9-10.7C50.1,214.6,39.9,234,39.9,234l-28.1,23L4,261.2
	c0,0-4.9,2.3-3.8,6.6c1.2,4.3-0.5,8.2,7.1,14.6c7.6,6.4,7.6,6.8,12.1,6.5c0,0-3.3-2.6-2.3-3.5c1-0.9,0.4-2.2,2.1-2.3
	s1.6,1.9,3.1,1.9c1.5,0,6.9,1.5,12.5-1s33.2-16.2,38.3-13.1c0,0,9.2-22.6,13.2-23.4c4-0.8-11.6-8.2-11.6-8.2s21.6,8.3,20.4,10.3
	c0,0-7.6-2.2-18.7,19.7c0,0,8.8,1.7,21.1,18.9c0,0,2,0.4,4.3,2.2c0,0,16-3.4,31,16.3c0,0,3.8,6.6,10.1,3.7c6.3-2.9,7.4-0.5,7.4-0.5
	l-9.5-32.1c0,0,15.6,49.5,22,58.6c6.4,9.1-5.3,22.6-5.3,22.6s-8.6,15.8-9.1,21.3c-0.5,5.5,13.4-6.7,13.4-6.7s4.4,3.9,3.7,7.8
	c-0.7,3.9,6.7-3.3,6.8-11.2c0.1-8.2,13.3-20,19.1-19.9c0,0-5.2-55.4,4.3-58c0,0-4.9,23-3.7,29.3c0,0,83.2,4.9,109.8-2.5
	c0,0-22.5-11.3-16.4-109.8c-1.2,23.9-1.1,78.6,20.9,110.7c14.8,21.7,20.4,29.1,22.3,31.2c-2.2,3.8-12.2,21.3-12.2,23.4
	c0,0-3.5-0.2-8.5,7.9c0,0-1.2,2.6,3.5,0.6c0,0,3.9-2.3,5.8-4c-1.1,1.5-2.4,3.9-1.2,4.9c2,1.7,4.9,0.1,4.9,0.1l4.3-4.7
	c0,0-4.5,6.1-1.6,5.5c0,0,1.8,2.9,6.2-3.9c0,0,0.1,4.9,4.1,3.4c4-1.5,24.5-34.7,24.5-36.8c0,0-12.3-24-13.2-48.4l1.3,5.4
	c0,0,27.2-44.1,22-91.7c0,0,6.9,49-10.4,74.6c3.7-5.3,16.4-23.4,16.7-24.9c0,0,8.3-50.8,3.6-60.5c0,0,6.4,6.8-0.1,56.3l9.8-14.7
	c0,0,5.3-38.2-1.2-43.4c0,0,6.4-2.5,4.4,39.5c0,0,6.3-9.4,9-11.2c0,0,1.1-22.7,0.4-26.2c0,0,3.4,15.6,2.5,23.3c0,0,5.8-5.5,8.1-6.1
	c0,0-0.8-14.5-2-16.6c0,0,3.6,5.5,4.2,14.9c0,0,47.4-49.4,242.4,1.9C655.9,219.4,673.8,222.9,658,213.2z M51.6,242.5
	c-3.1-0.2-7.9,5.6-6,2.9c1.9-2.8,1.4-5.2,1.4-5.2c0.7,0,3.1-3.1,6.6-5.8C53.6,234.4,54.7,242.8,51.6,242.5z M246.9,253.8
	c-8,12-16.7,24-41.8,34.2c0,0,24.3-11.7,41-38.5c0,0,19-16.9,32.9-17.1C279.1,232.4,254.8,241.8,246.9,253.8z"/>
<path d="M305.3,322.1c0,0,10.7,20.4,17,23.8c0,0-7,28-13.5,24.5c0,0-0.2-4.4-4.3-2.4c-4.1,2-9.6,4.6-8.5,2.5
	c1.1-2.1-2.4-1.1-4.1-0.9s-6.5,0.9,0.1-6.5S311,336.9,305.3,322.1z"/>
</svg>
