<svg id="Vrstva_1" data-name="Vrstva 1" xmlns="http://www.w3.org/2000/svg" viewBox="0 0 1366.6 580.37"><defs><style>.cls-1{stroke:#231f20;stroke-miterlimit:10;}</style></defs><title>unicorn</title><path id="_Cesta_" data-name="&lt;Cesta&gt;" class="cls-1" d="M-.06,108.82,277.23,145a84.48,84.48,0,0,0-5.91,21.23L-.06,108.82" transform="translate(0.17 0.87)"/><path id="_Cesta_2" data-name="&lt;Cesta&gt;" class="cls-1" d="M245,166.2l25.18,5c.19,1.55-5.84,19,2.94,45.74C273.09,217,248,201,245,166.2Z" transform="translate(0.17 0.87)"/><path id="_Cesta_3" data-name="&lt;Cesta&gt;" class="cls-1" d="M288.86,125.84c-6.63-27.19,4.7-44.46,13.76-52.53L327.5,96.7c52-43.7,90.18-26.27,155.87,19.52,6.6,6.06,104.34,46.3,339.17-80.6,0,0-97.28,37.85-183,16.72L615.5,66.43V48.83s-66-22-73.18-28.17l-17.85,8.8L520.9,13.62,497.7,38.26l-1.78-29s-27.67-15.84-86.57-4.4L396,33.86l-4.46-15-3.57,12.32L375.43.67S318.32,6.58,264.77,55l8,27.29-16.51-7L263,84l-17.85-4.4s-10.86,25.7-6.78,55.18l42.48,5.28s4-9,8-14.25" transform="translate(0.17 0.87)"/><path id="_Cesta_4" data-name="&lt;Cesta&gt;" class="cls-1" d="M526.42,136.13S633,136.13,747.2,79.8s174-71.29,187.41-69.53c0,0-30.34,18.48-40.16,33.45S948,34,958.71,23.47l-7.14,13.2S1006-7.34,1047.07.59l-8.92,15.84s26.77-24.65,133-12.32c0,0-122.27,12.25-218.65,63.78s-165.1,95.54-258.81,95.54-111.56,7.92-111.56,7.92Z" transform="translate(0.17 0.87)"/><path id="_Cesta_5" data-name="&lt;Cesta&gt;" class="cls-1" d="M762.4,439.88a593.71,593.71,0,0,0,93.43-8s138.61,116.22,193.94,132.94C1049.77,564.86,904.24,542.13,762.4,439.88Z" transform="translate(0.17 0.87)"/><path id="_Cesta_6" data-name="&lt;Cesta&gt;" class="cls-1" d="M284,140.09" transform="translate(0.17 0.87)"/><path class="cls-1" d="M1366.37,354.47s-587-16.91-786.89-152c0,0-137-107-165.1-111-22.31-7.88-46.62-13.81-85.78,21.6l-22.21-21.6s-15.17,19.84-8.92,42.73c0,0-28.56,38.73-15.17,89.78s5.8,54.57,5.8,54.57-2.23,19.36,19.19,22.88,10.71-.88,29.45,7,17-20.24,17-20.24-.89-24.65,8-35.21c5.34-6.32,12.25-19.92,15.24-35.28v.07s29.82,9.32,55.26,69.54c13.48,31.93,23.2,54.57,23.2,54.57s-33,59-43.73,59.85-15.17,37-1.78,36.09,30.34,83.62,23.2,88,8.92,15,13.39,11.44,13.39,1.76,21.42,14.08,20.53,22.88,20.53,22.88,9.82,10.56,14.28,0,2.68-25.53,6.25-28.17,7.14-17.6,0-24.65-19.63-4.4-28.56-8.8-12.49,0-17-9.68-19.08-70.41-14-78.34,12.22-11.44,16.68-11.44,43-2.64,63-16.72c0,0,77.1,51.05,334.12,19.36ZM300,217.28s-10.71-19.47-9-35.65c0,0,9.71,5.28,14.73,3.63C305.72,185.27,308.06,208,300,217.28ZM731.2,407.07l-174-163.71c-8.92,16.72,8,56.33,8,56.33-32.13-21.12-94.6-110.9-94.6-110.9-10.71,9.68,0,57.21,0,57.21s-38.38-40.49-55.33-80.1-59.35-57.21-59.35-57.21c51.54-50.17,173.23,76.58,213.74,102.1s116,74.82,184.51,80.76L844.54,400C806.8,403.37,769.53,415.94,731.2,407.07Z" transform="translate(0.17 0.87)"/></svg>